<?xml version="1.0" encoding="UTF-8"?>
<svg xmlns="http://www.w3.org/2000/svg" viewBox="0 0 1254 1254" role="img" aria-labelledby="title desc">
  <title id="title">RW personal monogram logo inverse rounded</title>
  <desc id="desc">A minimalist white RW monogram on a black rounded-square background with transparent outside corners.</desc>

  <!-- Transparent outside the rounded boundary by default -->
  <rect x="58" y="58" width="1138" height="1138" rx="145" ry="145" fill="#000000" stroke="#ffffff" stroke-width="22"/>

  <path d="M 266.0 307.0 L 266.0 309.0 L 281.0 315.0 L 294.0 324.0 L 305.0 336.0 L 311.0 349.0 L 312.0 523.0 L 392.0 523.0 L 393.0 345.0 L 557.0 344.0 L 580.0 346.0 L 606.0 353.0 L 621.0 360.0 L 635.0 369.0 L 651.0 384.0 L 661.0 398.0 L 670.0 420.0 L 673.0 438.0 L 673.0 452.0 L 669.0 474.0 L 662.0 491.0 L 654.0 503.0 L 638.0 519.0 L 614.0 533.0 L 583.0 542.0 L 563.0 544.0 L 458.0 544.0 L 458.0 546.0 L 474.0 551.0 L 493.0 561.0 L 509.0 573.0 L 526.0 591.0 L 625.0 723.0 L 783.0 945.0 L 788.0 948.0 L 1030.0 549.0 L 1031.0 544.0 L 957.0 544.0 L 793.0 818.0 L 790.0 822.0 L 788.0 822.0 L 618.0 578.0 L 619.0 575.0 L 647.0 571.0 L 677.0 562.0 L 704.0 549.0 L 724.0 535.0 L 741.0 518.0 L 756.0 495.0 L 764.0 473.0 L 767.0 456.0 L 767.0 434.0 L 765.0 420.0 L 760.0 403.0 L 752.0 386.0 L 740.0 369.0 L 724.0 353.0 L 703.0 338.0 L 672.0 323.0 L 647.0 315.0 L 609.0 308.0 Z
        M 222.0 544.0 L 222.0 547.0 L 488.0 948.0 L 490.0 948.0 L 611.0 759.0 L 613.0 751.0 L 579.0 703.0 L 575.0 701.0 L 496.0 821.0 L 492.0 822.0 L 311.0 544.0 Z" fill="#ffffff" fill-rule="evenodd"/>
</svg>
