<svg xmlns="http://www.w3.org/2000/svg" width="1400" height="720" viewBox="0 0 1400 720" role="img" aria-labelledby="title">
  <title id="title">Conceptual world map background</title>
  <rect width="1400" height="720" fill="#ffffff"/>
  <g fill="#dbe5ec">
    <path d="M165 246c32-70 118-110 206-92 65 13 101 49 151 54 45 4 91-17 134-3 50 16 62 58 26 90-40 35-108 14-164 30-77 22-93 102-172 120-84 18-178-16-215-78-22-37-14-81 34-121Z"/>
    <path d="M525 484c57-39 130-45 180-17 43 24 48 72 17 113-39 51-118 69-183 45-58-22-72-93-14-141Z"/>
    <path d="M745 176c58-44 160-55 238-26 58 22 89 68 155 76 54 7 98-20 146-5 58 18 76 72 42 111-45 52-148 44-217 79-72 36-75 109-151 133-77 24-173-6-212-67-34-53-6-105 47-136 34-20 79-35 79-72 0-28-44-38-94-34-55 5-76-28-33-59Z"/>
    <path d="M1010 540c52-28 111-22 142 13 26 29 10 75-35 98-56 28-130 5-143-43-7-27 6-51 36-68Z"/>
  </g>
  <g stroke="#c6d3dd" stroke-width="1" opacity=".72">
    <path d="M0 180h1400M0 360h1400M0 540h1400"/>
    <path d="M280 0v720M560 0v720M840 0v720M1120 0v720"/>
  </g>
</svg>
